<svg width="36" height="36" viewBox="0 0 36 36" fill="none" xmlns="http://www.w3.org/2000/svg">
<g clip-path="url(#clip0_5409_101)">
<path d="M11.2436 18.6259C11.2436 23.1646 12.9799 27.1836 15.8338 29.9034C15.3868 29.9381 14.9226 29.9727 14.4413 29.9727C6.37823 29.9727 0.790833 25.2781 0.790833 18.8338C0.790833 12.3895 6.36103 7.69482 14.4241 7.69482C14.7507 7.69482 15.0602 7.69482 15.3524 7.71215C12.7736 10.4319 11.2436 14.3297 11.2436 18.6259Z" fill="#004D45"/>
<path d="M35.0544 9.84268C35.4327 12.3199 33.5415 14.3468 30.3438 14.3468C25.5129 14.3468 24.6705 8.09301 15.3696 7.69458C17.7077 5.21733 20.9398 3.69287 24.6705 3.69287C24.7393 3.69287 24.808 3.69287 24.894 3.69287C30.2579 3.69287 34.6418 7.14023 35.0544 9.84268Z" fill="#0E9E53"/>
<path d="M32.2693 23.4243C33.5072 23.6668 35.106 24.533 35.106 27.1315C35.106 30.7521 29.5186 33.4372 24.8768 33.4892H24.8596H24.8424C21.3009 33.4892 18.1891 32.138 15.8338 29.9033C24 29.2103 27.8338 22.5582 32.2693 23.4243Z" fill="#0A004F"/>
</g>
<defs>
<clipPath id="clip0_5409_101">
<rect width="36" height="30.7317" fill="white" transform="translate(0 3)"/>
</clipPath>
</defs>
</svg>
