<?xml version="1.0" encoding="UTF-8"?>
<svg xmlns="http://www.w3.org/2000/svg" xmlns:xlink="http://www.w3.org/1999/xlink" width="16px" height="16px" viewBox="0 0 16 16" version="1.1">
<g id="surface1">
<path style=" stroke:none;fill-rule:nonzero;fill:rgb(100%,100%,100%);fill-opacity:1;" d="M 7.371094 16.011719 C 4.914062 16.011719 2.464844 16.011719 0.0117188 16.011719 C 0.0117188 10.679688 0.0117188 5.347656 0.0117188 0.0117188 C 5.347656 0.0117188 10.679688 0.0117188 16.011719 0.0117188 C 16.011719 5.347656 16.011719 10.679688 16.011719 16.011719 C 13.136719 16.011719 10.257812 16.011719 7.371094 16.011719 M 3.25 6.015625 C 3.25 6.015625 3.25 6.015625 3.246094 6.019531 C 3.242188 6.023438 3.242188 6.027344 3.238281 6.027344 C 3.238281 6.027344 3.238281 6.03125 3.230469 6.027344 C 3.214844 6.042969 3.203125 6.058594 3.191406 6.078125 C 3.191406 6.078125 3.1875 6.078125 3.179688 6.082031 C 3.152344 6.089844 3.128906 6.101562 3.097656 6.113281 C 3.09375 6.140625 3.089844 6.175781 3.085938 6.207031 C 3.085938 6.207031 3.085938 6.210938 3.074219 6.207031 C 3.0625 6.21875 3.039062 6.222656 3.035156 6.234375 C 2.992188 6.324219 2.898438 6.382812 2.875 6.484375 C 2.871094 6.492188 2.863281 6.496094 2.859375 6.496094 C 2.8125 6.5 2.804688 6.539062 2.804688 6.574219 C 2.800781 6.640625 2.785156 6.6875 2.71875 6.675781 C 2.707031 6.734375 2.695312 6.785156 2.6875 6.839844 C 2.683594 6.847656 2.695312 6.863281 2.699219 6.882812 C 2.691406 6.902344 2.6875 6.917969 2.679688 6.9375 C 2.570312 7.210938 2.503906 7.5 2.484375 7.796875 C 2.460938 8.199219 2.503906 8.597656 2.640625 8.984375 C 2.769531 9.347656 2.957031 9.679688 3.214844 9.964844 C 3.355469 10.121094 3.515625 10.261719 3.683594 10.390625 C 3.8125 10.492188 3.964844 10.566406 4.109375 10.660156 C 4.136719 10.667969 4.160156 10.675781 4.191406 10.6875 C 4.191406 10.6875 4.195312 10.6875 4.203125 10.695312 C 4.238281 10.710938 4.273438 10.726562 4.3125 10.738281 C 4.3125 10.738281 4.3125 10.742188 4.316406 10.75 C 4.386719 10.773438 4.460938 10.800781 4.539062 10.828125 C 4.542969 10.824219 4.542969 10.824219 4.546875 10.824219 C 4.546875 10.824219 4.546875 10.824219 4.550781 10.824219 C 4.550781 10.824219 4.550781 10.824219 4.554688 10.832031 C 4.808594 10.914062 5.070312 10.960938 5.335938 10.957031 C 5.335938 10.957031 5.335938 10.957031 5.34375 10.96875 C 5.363281 10.96875 5.386719 10.96875 5.40625 10.96875 C 6.539062 10.96875 7.671875 10.972656 8.800781 10.96875 C 9.46875 10.96875 10.136719 10.960938 10.800781 10.957031 C 10.996094 10.957031 11.183594 10.925781 11.371094 10.878906 C 11.722656 10.796875 12.046875 10.648438 12.34375 10.445312 C 12.390625 10.410156 12.433594 10.367188 12.476562 10.328125 C 12.476562 10.328125 12.476562 10.324219 12.484375 10.328125 C 12.503906 10.3125 12.523438 10.292969 12.542969 10.277344 C 12.542969 10.277344 12.542969 10.273438 12.550781 10.277344 C 12.5625 10.265625 12.578125 10.25 12.597656 10.230469 C 13.070312 9.851562 13.378906 9.363281 13.546875 8.78125 C 13.160156 8.78125 12.785156 8.78125 12.40625 8.78125 C 12.050781 9.539062 11.203125 9.976562 10.335938 9.75 C 9.558594 9.546875 9.003906 8.875 8.988281 8.023438 C 8.980469 7.570312 9.140625 7.160156 9.445312 6.820312 C 9.75 6.476562 10.136719 6.277344 10.589844 6.226562 C 11.234375 6.15625 12.011719 6.4375 12.410156 7.242188 C 12.785156 7.242188 13.164062 7.242188 13.542969 7.242188 C 13.542969 7.226562 13.546875 7.214844 13.542969 7.207031 C 13.492188 7.078125 13.449219 6.949219 13.394531 6.820312 C 13.292969 6.59375 13.15625 6.386719 13 6.191406 C 12.875 6.042969 12.742188 5.90625 12.59375 5.78125 C 12.574219 5.773438 12.558594 5.761719 12.539062 5.75 C 12.539062 5.75 12.539062 5.75 12.542969 5.742188 C 12.472656 5.6875 12.40625 5.628906 12.332031 5.578125 C 12.132812 5.433594 11.910156 5.324219 11.675781 5.238281 C 11.554688 5.195312 11.425781 5.167969 11.296875 5.132812 C 11.296875 5.132812 11.292969 5.132812 11.285156 5.125 C 11.214844 5.113281 11.144531 5.101562 11.070312 5.09375 C 11.070312 5.09375 11.074219 5.09375 11.066406 5.085938 C 10.890625 5.074219 10.714844 5.058594 10.539062 5.054688 C 8.84375 5.054688 7.144531 5.054688 5.449219 5.054688 C 5.414062 5.054688 5.382812 5.0625 5.335938 5.066406 C 5.195312 5.082031 5.054688 5.085938 4.914062 5.109375 C 4.632812 5.148438 4.363281 5.234375 4.117188 5.367188 C 3.9375 5.464844 3.773438 5.585938 3.601562 5.699219 C 3.5625 5.722656 3.527344 5.746094 3.480469 5.769531 C 3.476562 5.765625 3.476562 5.765625 3.472656 5.765625 C 3.46875 5.765625 3.46875 5.769531 3.46875 5.769531 C 3.476562 5.773438 3.480469 5.773438 3.488281 5.78125 C 3.476562 5.792969 3.46875 5.800781 3.449219 5.8125 C 3.449219 5.816406 3.445312 5.820312 3.441406 5.824219 C 3.441406 5.824219 3.445312 5.824219 3.433594 5.824219 C 3.347656 5.855469 3.285156 5.910156 3.265625 6.003906 C 3.265625 6.003906 3.265625 6.003906 3.257812 6.003906 C 3.257812 6.007812 3.253906 6.011719 3.25 6.015625 Z M 3.25 6.015625 "/>
<path style=" stroke:none;fill-rule:nonzero;fill:rgb(21.960784%,72.156864%,52.156866%);fill-opacity:1;" d="M 3.457031 5.8125 C 3.46875 5.800781 3.476562 5.792969 3.488281 5.777344 C 3.488281 5.773438 3.488281 5.773438 3.488281 5.773438 C 3.527344 5.746094 3.5625 5.722656 3.601562 5.699219 C 3.773438 5.585938 3.9375 5.464844 4.117188 5.367188 C 4.363281 5.234375 4.632812 5.148438 4.914062 5.109375 C 5.054688 5.085938 5.195312 5.082031 5.347656 5.066406 C 5.417969 5.070312 5.472656 5.070312 5.53125 5.070312 C 7.210938 5.070312 8.890625 5.070312 10.570312 5.070312 C 10.59375 5.070312 10.617188 5.066406 10.636719 5.070312 C 10.667969 5.078125 10.699219 5.089844 10.730469 5.101562 C 10.742188 5.101562 10.757812 5.089844 10.773438 5.09375 C 10.816406 5.097656 10.859375 5.117188 10.902344 5.117188 C 10.960938 5.113281 11.015625 5.101562 11.074219 5.09375 C 11.074219 5.09375 11.070312 5.09375 11.074219 5.097656 C 11.144531 5.113281 11.21875 5.121094 11.292969 5.132812 C 11.292969 5.132812 11.296875 5.132812 11.300781 5.136719 C 11.320312 5.175781 11.3125 5.1875 11.277344 5.179688 C 11.226562 5.167969 11.179688 5.148438 11.128906 5.148438 C 10.847656 5.148438 10.5625 5.125 10.28125 5.1875 C 10.226562 5.199219 10.152344 5.171875 10.109375 5.238281 C 10.101562 5.242188 10.09375 5.242188 10.082031 5.242188 C 9.988281 5.253906 9.898438 5.265625 9.808594 5.28125 C 9.804688 5.28125 9.800781 5.289062 9.796875 5.292969 C 9.773438 5.308594 9.753906 5.320312 9.730469 5.335938 C 9.695312 5.359375 9.660156 5.378906 9.625 5.402344 C 9.621094 5.402344 9.617188 5.402344 9.613281 5.402344 C 9.585938 5.40625 9.558594 5.402344 9.539062 5.414062 C 9.425781 5.476562 9.316406 5.542969 9.203125 5.609375 C 9.183594 5.621094 9.171875 5.644531 9.15625 5.660156 C 9.15625 5.660156 9.15625 5.660156 9.152344 5.660156 C 9.117188 5.683594 9.089844 5.710938 9.0625 5.734375 C 9.0625 5.734375 9.0625 5.734375 9.058594 5.734375 C 9.046875 5.738281 9.042969 5.746094 9.039062 5.75 C 9.039062 5.746094 9.039062 5.75 9.035156 5.75 C 9.023438 5.753906 9.019531 5.757812 9.015625 5.765625 C 9.015625 5.765625 9.015625 5.765625 9.011719 5.765625 C 8.996094 5.777344 8.984375 5.789062 8.972656 5.800781 C 8.972656 5.800781 8.976562 5.800781 8.972656 5.800781 C 8.964844 5.804688 8.964844 5.808594 8.960938 5.816406 C 8.945312 5.832031 8.933594 5.839844 8.921875 5.851562 C 8.5625 6.164062 8.296875 6.542969 8.125 6.988281 C 7.960938 7.410156 7.90625 7.84375 7.949219 8.292969 C 7.976562 8.585938 8.046875 8.863281 8.160156 9.132812 C 8.273438 9.394531 8.425781 9.632812 8.601562 9.859375 C 8.613281 9.871094 8.621094 9.882812 8.628906 9.890625 C 8.628906 9.894531 8.628906 9.890625 8.628906 9.894531 C 8.632812 9.902344 8.640625 9.902344 8.640625 9.90625 C 8.640625 9.90625 8.644531 9.902344 8.640625 9.910156 C 8.667969 9.9375 8.691406 9.960938 8.71875 9.984375 C 8.722656 9.992188 8.726562 9.992188 8.734375 9.996094 C 8.75 10.011719 8.757812 10.023438 8.769531 10.039062 C 8.765625 10.09375 8.796875 10.097656 8.832031 10.097656 C 8.832031 10.097656 8.832031 10.097656 8.832031 10.101562 C 8.851562 10.140625 8.867188 10.183594 8.925781 10.175781 C 8.929688 10.179688 8.933594 10.183594 8.933594 10.191406 C 8.945312 10.246094 8.980469 10.261719 9.023438 10.265625 C 9.023438 10.265625 9.023438 10.265625 9.023438 10.269531 C 9.042969 10.28125 9.058594 10.292969 9.078125 10.300781 C 9.074219 10.300781 9.078125 10.300781 9.078125 10.308594 C 9.09375 10.320312 9.113281 10.332031 9.132812 10.339844 C 9.136719 10.34375 9.140625 10.34375 9.140625 10.355469 C 9.128906 10.386719 9.125 10.410156 9.167969 10.40625 C 9.183594 10.40625 9.203125 10.40625 9.21875 10.40625 C 9.21875 10.40625 9.21875 10.402344 9.21875 10.40625 C 9.234375 10.417969 9.246094 10.425781 9.261719 10.429688 C 9.265625 10.429688 9.269531 10.433594 9.269531 10.4375 C 9.3125 10.511719 9.378906 10.542969 9.460938 10.546875 C 9.460938 10.546875 9.460938 10.546875 9.460938 10.550781 C 9.472656 10.554688 9.480469 10.558594 9.484375 10.558594 C 9.484375 10.558594 9.484375 10.558594 9.484375 10.5625 C 9.535156 10.597656 9.574219 10.648438 9.640625 10.632812 C 9.640625 10.632812 9.640625 10.632812 9.640625 10.636719 C 9.667969 10.648438 9.691406 10.65625 9.71875 10.664062 C 9.730469 10.667969 9.734375 10.671875 9.742188 10.679688 C 9.785156 10.746094 9.851562 10.734375 9.914062 10.738281 C 9.917969 10.734375 9.921875 10.738281 9.921875 10.742188 C 9.953125 10.804688 10.007812 10.769531 10.046875 10.777344 C 10.046875 10.777344 10.050781 10.777344 10.046875 10.78125 C 10.054688 10.792969 10.0625 10.804688 10.070312 10.804688 C 10.179688 10.824219 10.289062 10.847656 10.398438 10.855469 C 10.578125 10.875 10.753906 10.886719 10.933594 10.886719 C 11.050781 10.886719 11.167969 10.859375 11.285156 10.84375 C 11.292969 10.84375 11.300781 10.847656 11.328125 10.855469 C 11.292969 10.867188 11.277344 10.878906 11.257812 10.878906 C 11.160156 10.890625 11.0625 10.902344 10.960938 10.914062 C 10.804688 10.929688 10.644531 10.953125 10.484375 10.953125 C 9.117188 10.957031 7.746094 10.957031 6.378906 10.957031 C 6.03125 10.957031 5.683594 10.957031 5.335938 10.957031 C 5.335938 10.957031 5.335938 10.957031 5.335938 10.953125 C 5.324219 10.941406 5.316406 10.933594 5.304688 10.933594 C 5.199219 10.917969 5.097656 10.902344 4.992188 10.898438 C 4.875 10.894531 4.765625 10.871094 4.65625 10.828125 C 4.625 10.816406 4.585938 10.824219 4.550781 10.824219 C 4.550781 10.824219 4.550781 10.824219 4.550781 10.820312 C 4.550781 10.820312 4.546875 10.820312 4.546875 10.824219 C 4.542969 10.824219 4.542969 10.824219 4.535156 10.820312 C 4.460938 10.78125 4.402344 10.714844 4.3125 10.742188 C 4.3125 10.742188 4.3125 10.738281 4.3125 10.734375 C 4.273438 10.71875 4.234375 10.703125 4.195312 10.6875 C 4.195312 10.6875 4.191406 10.6875 4.1875 10.683594 C 4.15625 10.667969 4.132812 10.660156 4.105469 10.652344 C 3.964844 10.566406 3.8125 10.492188 3.683594 10.390625 C 3.515625 10.261719 3.355469 10.121094 3.214844 9.964844 C 2.957031 9.679688 2.769531 9.347656 2.640625 8.984375 C 2.503906 8.597656 2.460938 8.199219 2.484375 7.796875 C 2.503906 7.5 2.570312 7.210938 2.679688 6.9375 C 2.6875 6.917969 2.691406 6.902344 2.703125 6.875 C 2.796875 6.707031 2.882812 6.542969 2.972656 6.378906 C 3.003906 6.320312 3.046875 6.265625 3.085938 6.210938 C 3.085938 6.210938 3.085938 6.207031 3.089844 6.207031 C 3.125 6.164062 3.15625 6.121094 3.1875 6.078125 C 3.1875 6.078125 3.191406 6.078125 3.195312 6.074219 C 3.210938 6.058594 3.226562 6.042969 3.238281 6.03125 C 3.238281 6.03125 3.238281 6.027344 3.242188 6.027344 C 3.246094 6.023438 3.25 6.019531 3.25 6.015625 C 3.25 6.015625 3.25 6.015625 3.253906 6.015625 C 3.261719 6.011719 3.261719 6.007812 3.265625 6.003906 C 3.265625 6.003906 3.265625 6.003906 3.269531 6.003906 C 3.328125 5.941406 3.386719 5.882812 3.445312 5.824219 C 3.445312 5.824219 3.441406 5.824219 3.445312 5.824219 C 3.453125 5.820312 3.453125 5.816406 3.457031 5.8125 Z M 3.457031 5.8125 "/>
<path style=" stroke:none;fill-rule:nonzero;fill:rgb(9.411765%,9.411765%,9.411765%);fill-opacity:1;" d="M 9.742188 10.671875 C 9.734375 10.671875 9.730469 10.667969 9.714844 10.660156 C 9.6875 10.648438 9.664062 10.640625 9.640625 10.632812 C 9.640625 10.632812 9.640625 10.632812 9.636719 10.628906 C 9.585938 10.605469 9.535156 10.582031 9.484375 10.558594 C 9.484375 10.558594 9.484375 10.558594 9.484375 10.554688 C 9.472656 10.550781 9.46875 10.546875 9.460938 10.546875 C 9.460938 10.546875 9.460938 10.546875 9.457031 10.542969 C 9.394531 10.503906 9.332031 10.46875 9.269531 10.433594 C 9.269531 10.433594 9.265625 10.429688 9.261719 10.425781 C 9.242188 10.414062 9.230469 10.410156 9.21875 10.402344 C 9.21875 10.402344 9.21875 10.40625 9.214844 10.402344 C 9.191406 10.378906 9.167969 10.363281 9.140625 10.347656 C 9.140625 10.34375 9.136719 10.34375 9.128906 10.335938 C 9.109375 10.324219 9.09375 10.3125 9.078125 10.300781 C 9.078125 10.300781 9.074219 10.300781 9.074219 10.296875 C 9.058594 10.285156 9.042969 10.273438 9.023438 10.265625 C 9.023438 10.265625 9.023438 10.265625 9.023438 10.261719 C 8.992188 10.234375 8.964844 10.210938 8.933594 10.1875 C 8.933594 10.183594 8.929688 10.179688 8.921875 10.171875 C 8.890625 10.144531 8.859375 10.121094 8.832031 10.097656 C 8.832031 10.097656 8.832031 10.097656 8.832031 10.09375 C 8.808594 10.070312 8.789062 10.054688 8.769531 10.035156 C 8.757812 10.023438 8.75 10.011719 8.734375 9.996094 C 8.726562 9.988281 8.722656 9.984375 8.71875 9.984375 C 8.71875 9.984375 8.71875 9.984375 8.714844 9.980469 C 8.691406 9.953125 8.667969 9.925781 8.644531 9.902344 C 8.644531 9.902344 8.640625 9.90625 8.640625 9.902344 C 8.636719 9.894531 8.632812 9.894531 8.628906 9.890625 C 8.628906 9.890625 8.628906 9.894531 8.628906 9.886719 C 8.621094 9.875 8.613281 9.863281 8.601562 9.855469 C 8.425781 9.632812 8.273438 9.394531 8.160156 9.132812 C 8.046875 8.863281 7.976562 8.585938 7.949219 8.292969 C 7.90625 7.84375 7.960938 7.410156 8.125 6.988281 C 8.296875 6.542969 8.5625 6.164062 8.921875 5.851562 C 8.933594 5.839844 8.945312 5.832031 8.960938 5.816406 C 8.96875 5.808594 8.972656 5.804688 8.976562 5.800781 C 8.976562 5.800781 8.972656 5.800781 8.980469 5.800781 C 8.992188 5.789062 9.003906 5.777344 9.015625 5.765625 C 9.015625 5.765625 9.015625 5.765625 9.019531 5.765625 C 9.027344 5.757812 9.035156 5.753906 9.039062 5.75 C 9.039062 5.75 9.039062 5.746094 9.042969 5.75 C 9.050781 5.742188 9.054688 5.738281 9.0625 5.734375 C 9.0625 5.734375 9.0625 5.734375 9.066406 5.734375 C 9.097656 5.707031 9.128906 5.683594 9.15625 5.660156 C 9.15625 5.660156 9.15625 5.660156 9.160156 5.660156 C 9.316406 5.574219 9.46875 5.488281 9.617188 5.402344 C 9.617188 5.402344 9.621094 5.402344 9.628906 5.402344 C 9.785156 5.347656 9.933594 5.296875 10.085938 5.246094 C 10.09375 5.242188 10.101562 5.242188 10.113281 5.238281 C 10.128906 5.234375 10.136719 5.234375 10.140625 5.234375 C 10.472656 5.15625 10.808594 5.136719 11.148438 5.183594 C 11.5625 5.234375 11.945312 5.371094 12.296875 5.59375 C 12.378906 5.644531 12.457031 5.699219 12.539062 5.75 C 12.539062 5.75 12.539062 5.75 12.542969 5.753906 C 12.558594 5.769531 12.574219 5.78125 12.589844 5.789062 C 12.742188 5.90625 12.875 6.042969 13 6.191406 C 13.15625 6.386719 13.292969 6.59375 13.394531 6.820312 C 13.449219 6.949219 13.492188 7.078125 13.542969 7.207031 C 13.546875 7.214844 13.542969 7.226562 13.542969 7.242188 C 13.164062 7.242188 12.785156 7.242188 12.410156 7.242188 C 12.011719 6.4375 11.234375 6.15625 10.589844 6.226562 C 10.136719 6.277344 9.75 6.476562 9.445312 6.820312 C 9.140625 7.160156 8.980469 7.570312 8.988281 8.023438 C 9.003906 8.875 9.558594 9.546875 10.335938 9.75 C 11.203125 9.976562 12.050781 9.539062 12.40625 8.78125 C 12.785156 8.78125 13.160156 8.78125 13.546875 8.78125 C 13.378906 9.363281 13.070312 9.851562 12.589844 10.234375 C 12.570312 10.25 12.554688 10.261719 12.542969 10.273438 C 12.542969 10.273438 12.542969 10.277344 12.539062 10.277344 C 12.515625 10.292969 12.496094 10.308594 12.476562 10.324219 C 12.476562 10.324219 12.476562 10.328125 12.472656 10.324219 C 12.367188 10.386719 12.265625 10.453125 12.164062 10.511719 C 11.828125 10.699219 11.472656 10.816406 11.09375 10.847656 C 10.878906 10.867188 10.660156 10.855469 10.445312 10.84375 C 10.3125 10.835938 10.179688 10.800781 10.050781 10.777344 C 10.050781 10.777344 10.046875 10.777344 10.046875 10.773438 C 10.003906 10.757812 9.960938 10.75 9.921875 10.738281 C 9.921875 10.738281 9.917969 10.734375 9.910156 10.734375 C 9.851562 10.710938 9.796875 10.691406 9.742188 10.671875 Z M 9.742188 10.671875 "/>
<path style=" stroke:none;fill-rule:nonzero;fill:rgb(30.588236%,66.274512%,52.549022%);fill-opacity:1;" d="M 10.046875 10.78125 C 10.179688 10.800781 10.3125 10.835938 10.445312 10.84375 C 10.660156 10.855469 10.878906 10.867188 11.09375 10.847656 C 11.472656 10.816406 11.828125 10.699219 12.164062 10.511719 C 12.265625 10.453125 12.367188 10.386719 12.472656 10.324219 C 12.433594 10.367188 12.390625 10.410156 12.34375 10.445312 C 12.046875 10.648438 11.722656 10.796875 11.371094 10.878906 C 11.183594 10.925781 10.996094 10.957031 10.800781 10.957031 C 10.136719 10.960938 9.46875 10.96875 8.800781 10.96875 C 7.671875 10.972656 6.539062 10.96875 5.40625 10.96875 C 5.386719 10.96875 5.363281 10.96875 5.339844 10.960938 C 5.683594 10.957031 6.03125 10.957031 6.378906 10.957031 C 7.746094 10.957031 9.117188 10.957031 10.484375 10.953125 C 10.644531 10.953125 10.804688 10.929688 10.960938 10.914062 C 11.0625 10.902344 11.160156 10.890625 11.257812 10.878906 C 11.277344 10.878906 11.292969 10.867188 11.328125 10.855469 C 11.300781 10.847656 11.292969 10.84375 11.285156 10.84375 C 11.167969 10.859375 11.050781 10.886719 10.933594 10.886719 C 10.753906 10.886719 10.578125 10.875 10.398438 10.855469 C 10.289062 10.847656 10.179688 10.824219 10.070312 10.804688 C 10.0625 10.804688 10.054688 10.792969 10.046875 10.78125 Z M 10.046875 10.78125 "/>
<path style=" stroke:none;fill-rule:nonzero;fill:rgb(30.19608%,65.098041%,51.764709%);fill-opacity:1;" d="M 12.539062 5.746094 C 12.457031 5.699219 12.378906 5.644531 12.296875 5.59375 C 11.945312 5.371094 11.5625 5.234375 11.148438 5.183594 C 10.808594 5.136719 10.472656 5.15625 10.140625 5.234375 C 10.136719 5.234375 10.128906 5.234375 10.117188 5.234375 C 10.152344 5.171875 10.226562 5.199219 10.28125 5.1875 C 10.5625 5.125 10.847656 5.148438 11.128906 5.148438 C 11.179688 5.148438 11.226562 5.167969 11.277344 5.179688 C 11.3125 5.1875 11.320312 5.175781 11.304688 5.140625 C 11.425781 5.167969 11.554688 5.195312 11.675781 5.238281 C 11.910156 5.324219 12.132812 5.433594 12.332031 5.578125 C 12.40625 5.628906 12.472656 5.6875 12.539062 5.746094 Z M 12.539062 5.746094 "/>
<path style=" stroke:none;fill-rule:nonzero;fill:rgb(30.19608%,65.098041%,51.764709%);fill-opacity:1;" d="M 11.070312 5.089844 C 11.015625 5.101562 10.960938 5.113281 10.902344 5.117188 C 10.859375 5.117188 10.816406 5.097656 10.773438 5.09375 C 10.757812 5.089844 10.742188 5.101562 10.730469 5.101562 C 10.699219 5.089844 10.667969 5.078125 10.636719 5.070312 C 10.617188 5.066406 10.59375 5.070312 10.570312 5.070312 C 8.890625 5.070312 7.210938 5.070312 5.53125 5.070312 C 5.472656 5.070312 5.417969 5.070312 5.355469 5.066406 C 5.382812 5.0625 5.414062 5.054688 5.449219 5.054688 C 7.144531 5.054688 8.84375 5.054688 10.539062 5.054688 C 10.714844 5.058594 10.890625 5.074219 11.070312 5.089844 Z M 11.070312 5.089844 "/>
<path style=" stroke:none;fill-rule:nonzero;fill:rgb(89.411765%,98.039216%,94.901961%);fill-opacity:1;" d="M 3.082031 6.207031 C 3.046875 6.265625 3.003906 6.320312 2.972656 6.378906 C 2.882812 6.542969 2.796875 6.707031 2.703125 6.871094 C 2.695312 6.863281 2.683594 6.847656 2.6875 6.839844 C 2.695312 6.785156 2.707031 6.734375 2.71875 6.675781 C 2.785156 6.6875 2.800781 6.640625 2.804688 6.574219 C 2.804688 6.539062 2.8125 6.5 2.859375 6.496094 C 2.863281 6.496094 2.871094 6.492188 2.875 6.484375 C 2.898438 6.382812 2.992188 6.324219 3.035156 6.234375 C 3.039062 6.222656 3.0625 6.21875 3.082031 6.207031 Z M 3.082031 6.207031 "/>
<path style=" stroke:none;fill-rule:nonzero;fill:rgb(30.588236%,66.274512%,52.549022%);fill-opacity:1;" d="M 4.554688 10.828125 C 4.585938 10.824219 4.625 10.816406 4.65625 10.828125 C 4.765625 10.871094 4.875 10.894531 4.992188 10.898438 C 5.097656 10.902344 5.199219 10.917969 5.304688 10.933594 C 5.316406 10.933594 5.324219 10.941406 5.335938 10.953125 C 5.070312 10.960938 4.808594 10.914062 4.554688 10.828125 Z M 4.554688 10.828125 "/>
<path style=" stroke:none;fill-rule:nonzero;fill:rgb(89.411765%,98.039216%,94.901961%);fill-opacity:1;" d="M 3.4375 5.824219 C 3.386719 5.882812 3.328125 5.941406 3.269531 6.003906 C 3.285156 5.910156 3.347656 5.855469 3.4375 5.824219 Z M 3.4375 5.824219 "/>
<path style=" stroke:none;fill-rule:nonzero;fill:rgb(30.588236%,66.274512%,52.549022%);fill-opacity:1;" d="M 4.3125 10.746094 C 4.402344 10.714844 4.460938 10.78125 4.53125 10.820312 C 4.460938 10.800781 4.386719 10.773438 4.3125 10.746094 Z M 4.3125 10.746094 "/>
<path style=" stroke:none;fill-rule:nonzero;fill:rgb(89.411765%,98.039216%,94.901961%);fill-opacity:1;" d="M 3.183594 6.082031 C 3.15625 6.121094 3.125 6.164062 3.089844 6.207031 C 3.089844 6.175781 3.09375 6.140625 3.097656 6.113281 C 3.128906 6.101562 3.152344 6.089844 3.183594 6.082031 Z M 3.183594 6.082031 "/>
<path style=" stroke:none;fill-rule:nonzero;fill:rgb(30.19608%,65.098041%,51.764709%);fill-opacity:1;" d="M 11.289062 5.128906 C 11.21875 5.121094 11.144531 5.113281 11.074219 5.097656 C 11.144531 5.101562 11.214844 5.113281 11.289062 5.128906 Z M 11.289062 5.128906 "/>
<path style=" stroke:none;fill-rule:nonzero;fill:rgb(30.588236%,66.274512%,52.549022%);fill-opacity:1;" d="M 4.199219 10.691406 C 4.234375 10.703125 4.273438 10.71875 4.3125 10.738281 C 4.273438 10.726562 4.238281 10.710938 4.199219 10.691406 Z M 4.199219 10.691406 "/>
<path style=" stroke:none;fill-rule:nonzero;fill:rgb(30.588236%,66.274512%,52.549022%);fill-opacity:1;" d="M 12.480469 10.328125 C 12.496094 10.308594 12.515625 10.292969 12.535156 10.273438 C 12.523438 10.292969 12.503906 10.3125 12.480469 10.328125 Z M 12.480469 10.328125 "/>
<path style=" stroke:none;fill-rule:nonzero;fill:rgb(30.588236%,66.274512%,52.549022%);fill-opacity:1;" d="M 4.109375 10.65625 C 4.132812 10.660156 4.15625 10.667969 4.183594 10.683594 C 4.160156 10.675781 4.136719 10.667969 4.109375 10.65625 Z M 4.109375 10.65625 "/>
<path style=" stroke:none;fill-rule:nonzero;fill:rgb(30.588236%,66.274512%,52.549022%);fill-opacity:1;" d="M 12.546875 10.277344 C 12.554688 10.261719 12.570312 10.25 12.589844 10.238281 C 12.578125 10.25 12.5625 10.265625 12.546875 10.277344 Z M 12.546875 10.277344 "/>
<path style=" stroke:none;fill-rule:nonzero;fill:rgb(30.19608%,65.098041%,51.764709%);fill-opacity:1;" d="M 12.589844 5.785156 C 12.574219 5.78125 12.558594 5.769531 12.542969 5.753906 C 12.558594 5.761719 12.574219 5.773438 12.589844 5.785156 Z M 12.589844 5.785156 "/>
<path style=" stroke:none;fill-rule:nonzero;fill:rgb(89.411765%,98.039216%,94.901961%);fill-opacity:1;" d="M 3.234375 6.03125 C 3.226562 6.042969 3.210938 6.058594 3.195312 6.074219 C 3.203125 6.058594 3.214844 6.042969 3.234375 6.03125 Z M 3.234375 6.03125 "/>
<path style=" stroke:none;fill-rule:nonzero;fill:rgb(89.411765%,98.039216%,94.901961%);fill-opacity:1;" d="M 3.488281 5.773438 C 3.480469 5.773438 3.476562 5.773438 3.46875 5.769531 C 3.46875 5.769531 3.46875 5.765625 3.472656 5.765625 C 3.476562 5.765625 3.476562 5.765625 3.484375 5.769531 C 3.488281 5.773438 3.488281 5.773438 3.488281 5.773438 Z M 3.488281 5.773438 "/>
<path style=" stroke:none;fill-rule:nonzero;fill:rgb(89.411765%,98.039216%,94.901961%);fill-opacity:1;" d="M 3.25 6.015625 C 3.25 6.019531 3.246094 6.023438 3.242188 6.027344 C 3.242188 6.027344 3.242188 6.023438 3.25 6.015625 Z M 3.25 6.015625 "/>
<path style=" stroke:none;fill-rule:nonzero;fill:rgb(89.411765%,98.039216%,94.901961%);fill-opacity:1;" d="M 3.261719 6.003906 C 3.261719 6.007812 3.261719 6.011719 3.253906 6.015625 C 3.253906 6.011719 3.257812 6.007812 3.261719 6.003906 Z M 3.261719 6.003906 "/>
<path style=" stroke:none;fill-rule:nonzero;fill:rgb(89.411765%,98.039216%,94.901961%);fill-opacity:1;" d="M 3.453125 5.8125 C 3.453125 5.816406 3.453125 5.820312 3.445312 5.824219 C 3.445312 5.820312 3.449219 5.816406 3.453125 5.8125 Z M 3.453125 5.8125 "/>
<path style=" stroke:none;fill-rule:nonzero;fill:rgb(30.588236%,66.274512%,52.549022%);fill-opacity:1;" d="M 4.546875 10.824219 C 4.546875 10.820312 4.550781 10.820312 4.550781 10.820312 C 4.546875 10.824219 4.546875 10.824219 4.546875 10.824219 Z M 4.546875 10.824219 "/>
<path style=" stroke:none;fill-rule:nonzero;fill:rgb(30.19608%,65.098041%,51.764709%);fill-opacity:1;" d="M 10.082031 5.242188 C 9.933594 5.296875 9.785156 5.347656 9.628906 5.402344 C 9.660156 5.378906 9.695312 5.359375 9.730469 5.335938 C 9.753906 5.320312 9.773438 5.308594 9.796875 5.292969 C 9.800781 5.289062 9.804688 5.28125 9.808594 5.28125 C 9.898438 5.265625 9.988281 5.253906 10.082031 5.242188 Z M 10.082031 5.242188 "/>
<path style=" stroke:none;fill-rule:nonzero;fill:rgb(30.19608%,65.098041%,51.764709%);fill-opacity:1;" d="M 9.613281 5.402344 C 9.46875 5.488281 9.316406 5.574219 9.160156 5.660156 C 9.171875 5.644531 9.183594 5.621094 9.203125 5.609375 C 9.316406 5.542969 9.425781 5.476562 9.539062 5.414062 C 9.558594 5.402344 9.585938 5.40625 9.613281 5.402344 Z M 9.613281 5.402344 "/>
<path style=" stroke:none;fill-rule:nonzero;fill:rgb(30.588236%,66.274512%,52.549022%);fill-opacity:1;" d="M 9.269531 10.4375 C 9.332031 10.46875 9.394531 10.503906 9.457031 10.542969 C 9.378906 10.542969 9.3125 10.511719 9.269531 10.4375 Z M 9.269531 10.4375 "/>
<path style=" stroke:none;fill-rule:nonzero;fill:rgb(30.588236%,66.274512%,52.549022%);fill-opacity:1;" d="M 9.742188 10.679688 C 9.796875 10.691406 9.851562 10.710938 9.910156 10.734375 C 9.851562 10.734375 9.785156 10.746094 9.742188 10.679688 Z M 9.742188 10.679688 "/>
<path style=" stroke:none;fill-rule:nonzero;fill:rgb(30.588236%,66.274512%,52.549022%);fill-opacity:1;" d="M 9.484375 10.5625 C 9.535156 10.582031 9.585938 10.605469 9.636719 10.628906 C 9.574219 10.648438 9.535156 10.597656 9.484375 10.5625 Z M 9.484375 10.5625 "/>
<path style=" stroke:none;fill-rule:nonzero;fill:rgb(30.588236%,66.274512%,52.549022%);fill-opacity:1;" d="M 9.921875 10.742188 C 9.960938 10.75 10.003906 10.757812 10.046875 10.773438 C 10.007812 10.769531 9.953125 10.804688 9.921875 10.742188 Z M 9.921875 10.742188 "/>
<path style=" stroke:none;fill-rule:nonzero;fill:rgb(30.588236%,66.274512%,52.549022%);fill-opacity:1;" d="M 9.140625 10.355469 C 9.167969 10.363281 9.191406 10.378906 9.21875 10.398438 C 9.203125 10.40625 9.183594 10.40625 9.167969 10.40625 C 9.125 10.410156 9.128906 10.386719 9.140625 10.355469 Z M 9.140625 10.355469 "/>
<path style=" stroke:none;fill-rule:nonzero;fill:rgb(30.19608%,65.098041%,51.764709%);fill-opacity:1;" d="M 9.152344 5.660156 C 9.128906 5.683594 9.097656 5.707031 9.066406 5.734375 C 9.089844 5.710938 9.117188 5.683594 9.152344 5.660156 Z M 9.152344 5.660156 "/>
<path style=" stroke:none;fill-rule:nonzero;fill:rgb(30.588236%,66.274512%,52.549022%);fill-opacity:1;" d="M 8.933594 10.191406 C 8.964844 10.210938 8.992188 10.234375 9.023438 10.261719 C 8.980469 10.261719 8.945312 10.246094 8.933594 10.191406 Z M 8.933594 10.191406 "/>
<path style=" stroke:none;fill-rule:nonzero;fill:rgb(30.588236%,66.274512%,52.549022%);fill-opacity:1;" d="M 8.832031 10.101562 C 8.859375 10.121094 8.890625 10.144531 8.917969 10.171875 C 8.867188 10.183594 8.851562 10.140625 8.832031 10.101562 Z M 8.832031 10.101562 "/>
<path style=" stroke:none;fill-rule:nonzero;fill:rgb(30.588236%,66.274512%,52.549022%);fill-opacity:1;" d="M 8.640625 9.910156 C 8.667969 9.925781 8.691406 9.953125 8.71875 9.980469 C 8.691406 9.960938 8.667969 9.9375 8.640625 9.910156 Z M 8.640625 9.910156 "/>
<path style=" stroke:none;fill-rule:nonzero;fill:rgb(30.588236%,66.274512%,52.549022%);fill-opacity:1;" d="M 8.769531 10.039062 C 8.789062 10.054688 8.808594 10.070312 8.832031 10.09375 C 8.796875 10.097656 8.765625 10.09375 8.769531 10.039062 Z M 8.769531 10.039062 "/>
<path style=" stroke:none;fill-rule:nonzero;fill:rgb(30.588236%,66.274512%,52.549022%);fill-opacity:1;" d="M 9.640625 10.636719 C 9.664062 10.640625 9.6875 10.648438 9.710938 10.660156 C 9.691406 10.65625 9.667969 10.648438 9.640625 10.636719 Z M 9.640625 10.636719 "/>
<path style=" stroke:none;fill-rule:nonzero;fill:rgb(30.588236%,66.274512%,52.549022%);fill-opacity:1;" d="M 9.078125 10.308594 C 9.09375 10.3125 9.109375 10.324219 9.128906 10.335938 C 9.113281 10.332031 9.09375 10.320312 9.078125 10.308594 Z M 9.078125 10.308594 "/>
<path style=" stroke:none;fill-rule:nonzero;fill:rgb(30.588236%,66.274512%,52.549022%);fill-opacity:1;" d="M 9.023438 10.269531 C 9.042969 10.273438 9.058594 10.285156 9.074219 10.296875 C 9.058594 10.292969 9.042969 10.28125 9.023438 10.269531 Z M 9.023438 10.269531 "/>
<path style=" stroke:none;fill-rule:nonzero;fill:rgb(30.19608%,65.098041%,51.764709%);fill-opacity:1;" d="M 9.011719 5.765625 C 9.003906 5.777344 8.992188 5.789062 8.980469 5.800781 C 8.984375 5.789062 8.996094 5.777344 9.011719 5.765625 Z M 9.011719 5.765625 "/>
<path style=" stroke:none;fill-rule:nonzero;fill:rgb(30.588236%,66.274512%,52.549022%);fill-opacity:1;" d="M 9.21875 10.40625 C 9.230469 10.410156 9.242188 10.414062 9.257812 10.425781 C 9.246094 10.425781 9.234375 10.417969 9.21875 10.40625 Z M 9.21875 10.40625 "/>
<path style=" stroke:none;fill-rule:nonzero;fill:rgb(30.588236%,66.274512%,52.549022%);fill-opacity:1;" d="M 8.601562 9.859375 C 8.613281 9.863281 8.621094 9.875 8.628906 9.886719 C 8.621094 9.882812 8.613281 9.871094 8.601562 9.859375 Z M 8.601562 9.859375 "/>
<path style=" stroke:none;fill-rule:nonzero;fill:rgb(30.19608%,65.098041%,51.764709%);fill-opacity:1;" d="M 9.035156 5.75 C 9.035156 5.753906 9.027344 5.757812 9.019531 5.765625 C 9.019531 5.757812 9.023438 5.753906 9.035156 5.75 Z M 9.035156 5.75 "/>
<path style=" stroke:none;fill-rule:nonzero;fill:rgb(30.19608%,65.098041%,51.764709%);fill-opacity:1;" d="M 9.058594 5.734375 C 9.054688 5.738281 9.050781 5.742188 9.042969 5.75 C 9.042969 5.746094 9.046875 5.738281 9.058594 5.734375 Z M 9.058594 5.734375 "/>
<path style=" stroke:none;fill-rule:nonzero;fill:rgb(30.588236%,66.274512%,52.549022%);fill-opacity:1;" d="M 9.460938 10.550781 C 9.46875 10.546875 9.472656 10.550781 9.484375 10.554688 C 9.480469 10.558594 9.472656 10.554688 9.460938 10.550781 Z M 9.460938 10.550781 "/>
<path style=" stroke:none;fill-rule:nonzero;fill:rgb(30.19608%,65.098041%,51.764709%);fill-opacity:1;" d="M 8.972656 5.800781 C 8.972656 5.804688 8.96875 5.808594 8.964844 5.8125 C 8.964844 5.808594 8.964844 5.804688 8.972656 5.800781 Z M 8.972656 5.800781 "/>
<path style=" stroke:none;fill-rule:nonzero;fill:rgb(30.588236%,66.274512%,52.549022%);fill-opacity:1;" d="M 8.628906 9.894531 C 8.632812 9.894531 8.636719 9.894531 8.640625 9.902344 C 8.640625 9.902344 8.632812 9.902344 8.628906 9.894531 Z M 8.628906 9.894531 "/>
<path style=" stroke:none;fill-rule:nonzero;fill:rgb(30.588236%,66.274512%,52.549022%);fill-opacity:1;" d="M 8.71875 9.984375 C 8.722656 9.984375 8.726562 9.988281 8.730469 9.992188 C 8.726562 9.992188 8.722656 9.992188 8.71875 9.984375 Z M 8.71875 9.984375 "/>
</g>
</svg>
