<?xml version="1.0" encoding="UTF-8"?>
<svg xmlns="http://www.w3.org/2000/svg" xmlns:xlink="http://www.w3.org/1999/xlink" width="16px" height="16px" viewBox="0 0 16 16" version="1.1">
<g id="surface1">
<path style=" stroke:none;fill-rule:nonzero;fill:rgb(27.450982%,50.980395%,98.039216%);fill-opacity:1;" d="M 14.855469 8 C 14.855469 4.214844 11.785156 1.144531 8 1.144531 C 4.214844 1.144531 1.144531 4.214844 1.144531 8 C 1.144531 11.785156 4.214844 14.855469 8 14.855469 C 11.785156 14.855469 14.855469 11.785156 14.855469 8 Z M 14.855469 8 "/>
<path style=" stroke:none;fill-rule:nonzero;fill:rgb(100%,100%,100%);fill-opacity:1;" d="M 7.429688 11.429688 C 7.429688 11.746094 7.683594 12 8 12 C 8.316406 12 8.570312 11.746094 8.570312 11.429688 L 8.570312 8 C 8.570312 7.683594 8.316406 7.429688 8 7.429688 C 7.683594 7.429688 7.429688 7.683594 7.429688 8 Z M 7.429688 11.429688 "/>
<path style=" stroke:none;fill-rule:nonzero;fill:rgb(100%,100%,100%);fill-opacity:1;" d="M 8 4 C 7.527344 4 7.144531 4.382812 7.144531 4.855469 C 7.144531 5.332031 7.527344 5.714844 8 5.714844 C 8.472656 5.714844 8.855469 5.332031 8.855469 4.855469 C 8.855469 4.382812 8.472656 4 8 4 Z M 8 4 "/>
</g>
</svg>
